<?xml version="1.0" encoding="UTF-8" standalone="no"?>
<svg
   xmlns:dc="http://purl.org/dc/elements/1.1/"
   xmlns:cc="http://creativecommons.org/ns#"
   xmlns:rdf="http://www.w3.org/1999/02/22-rdf-syntax-ns#"
   xmlns:svg="http://www.w3.org/2000/svg"
   xmlns="http://www.w3.org/2000/svg"
   viewBox="0 0 666.66669 666.66669"
   height="666.66669"
   width="666.66669"
   xml:space="preserve"
   id="svg2"
   version="1.1"><metadata
     id="metadata8"><rdf:RDF><cc:Work
         rdf:about=""><dc:format>image/svg+xml</dc:format><dc:type
           rdf:resource="http://purl.org/dc/dcmitype/StillImage" /><dc:title></dc:title></cc:Work></rdf:RDF></metadata><defs
     id="defs6"><clipPath
       id="clipPath18"
       clipPathUnits="userSpaceOnUse"><path
         id="path16"
         d="M 0,0 H 500 V 500 H 0 Z" /></clipPath><radialGradient
       id="radialGradient34"
       spreadMethod="pad"
       gradientTransform="matrix(250,0,0,-250,250,250)"
       gradientUnits="userSpaceOnUse"
       r="1"
       cy="0"
       cx="0"
       fy="0"
       fx="0"><stop
         id="stop24"
         offset="0"
         style="stop-opacity:1;stop-color:#01305d" /><stop
         id="stop26"
         offset="0.0184783"
         style="stop-opacity:1;stop-color:#01305d" /><stop
         id="stop28"
         offset="0.2441636"
         style="stop-opacity:1;stop-color:#01305d" /><stop
         id="stop30"
         offset="0.951087"
         style="stop-opacity:1;stop-color:#011936" /><stop
         id="stop32"
         offset="1"
         style="stop-opacity:1;stop-color:#011936" /></radialGradient><clipPath
       id="clipPath44"
       clipPathUnits="userSpaceOnUse"><path
         id="path42"
         d="M 0,500 H 500 V 0 H 0 Z" /></clipPath><clipPath
       id="clipPath52"
       clipPathUnits="userSpaceOnUse"><path
         id="path50"
         d="M 11,137 H 335 V 51.6667 H 11 Z" /></clipPath><clipPath
       id="clipPath56"
       clipPathUnits="userSpaceOnUse"><path
         id="path54"
         d="M 335,94.333 C 335,70.77 262.47,51.667 173,51.667 83.53,51.667 11,70.77 11,94.333 11,117.897 83.53,137 173,137 c 89.47,0 162,-19.103 162,-42.667" /></clipPath><clipPath
       id="clipPath60"
       clipPathUnits="userSpaceOnUse"><path
         id="path58"
         d="M -32768,32767 H 32767 V -32768 H -32768 Z" /></clipPath><radialGradient
       id="radialGradient70"
       spreadMethod="pad"
       gradientTransform="matrix(156.66748,0,0,-39.680382,173,94.333351)"
       gradientUnits="userSpaceOnUse"
       r="1"
       cy="0"
       cx="0"
       fy="0"
       fx="0"><stop
         id="stop62"
         offset="0"
         style="stop-opacity:1;stop-color:#ffffff" /><stop
         id="stop64"
         offset="0.131522"
         style="stop-opacity:1;stop-color:#ffffff" /><stop
         id="stop66"
         offset="0.68244732"
         style="stop-opacity:1;stop-color:#ffffff" /><stop
         id="stop68"
         offset="1"
         style="stop-opacity:0;stop-color:#ffffff" /></radialGradient><mask
       id="mask72"
       height="1"
       width="1"
       y="0"
       x="0"
       maskUnits="userSpaceOnUse"><g
         id="g82"><g
           id="g80"
           clip-path="url(#clipPath60)"><g
             id="g78"><g
               id="g76"><path
                 id="path74"
                 style="fill:url(#radialGradient70);stroke:none"
                 d="M -32768,32767 H 32767 V -32768 H -32768 Z" /></g></g></g></g></mask><radialGradient
       id="radialGradient92"
       spreadMethod="pad"
       gradientTransform="matrix(156.66748,0,0,-39.680382,173,94.333351)"
       gradientUnits="userSpaceOnUse"
       r="1"
       cy="0"
       cx="0"
       fy="0"
       fx="0"><stop
         id="stop84"
         offset="0"
         style="stop-opacity:1;stop-color:#b0b4c4" /><stop
         id="stop86"
         offset="0.131522"
         style="stop-opacity:1;stop-color:#b0b4c4" /><stop
         id="stop88"
         offset="0.68244732"
         style="stop-opacity:1;stop-color:#b0b4c4" /><stop
         id="stop90"
         offset="1"
         style="stop-opacity:1;stop-color:#b0b4c4" /></radialGradient><clipPath
       id="clipPath118"
       clipPathUnits="userSpaceOnUse"><path
         id="path116"
         d="M 0,500 H 500 V 0 H 0 Z" /></clipPath><clipPath
       id="clipPath150"
       clipPathUnits="userSpaceOnUse"><path
         id="path148"
         d="M 0,500 H 500 V 0 H 0 Z" /></clipPath><clipPath
       id="clipPath182"
       clipPathUnits="userSpaceOnUse"><path
         id="path180"
         d="m 213.062,112.216 h 43.091 V 82.617 h -43.091 z" /></clipPath><clipPath
       id="clipPath198"
       clipPathUnits="userSpaceOnUse"><path
         id="path196"
         d="M 50.4438,177.832 H 70.675 v -17.94 H 50.4438 Z" /></clipPath><clipPath
       id="clipPath238"
       clipPathUnits="userSpaceOnUse"><path
         id="path236"
         d="m 84.312,112.716 h 43.091 V 83.117 H 84.312 Z" /></clipPath><clipPath
       id="clipPath254"
       clipPathUnits="userSpaceOnUse"><path
         id="path252"
         d="m 277.96,173.253 h 20.408 V 154.979 H 277.96 Z" /></clipPath><clipPath
       id="clipPath346"
       clipPathUnits="userSpaceOnUse"><path
         id="path344"
         d="m 182.229,352.082 h 22.925 v -19.287 h -22.925 z" /></clipPath><clipPath
       id="clipPath366"
       clipPathUnits="userSpaceOnUse"><path
         id="path364"
         d="m 173.562,388.873 h 12.555 v -22.856 h -12.555 z" /></clipPath><clipPath
       id="clipPath392"
       clipPathUnits="userSpaceOnUse"><path
         id="path390"
         d="m 224.02,355.075 h 4.933 v -31.983 h -4.933 z" /></clipPath><clipPath
       id="clipPath418"
       clipPathUnits="userSpaceOnUse"><path
         id="path416"
         d="m 114.6,355.061 h 4.795 V 323.106 H 114.6 Z" /></clipPath><clipPath
       id="clipPath434"
       clipPathUnits="userSpaceOnUse"><path
         id="path432"
         d="m 158.645,420.33 h 26.263 v -26.263 h -26.263 z" /></clipPath><clipPath
       id="clipPath460"
       clipPathUnits="userSpaceOnUse"><path
         id="path458"
         d="m 107.145,151.582 h 122.5 v -51.5 h -122.5 z" /></clipPath><clipPath
       id="clipPath464"
       clipPathUnits="userSpaceOnUse"><path
         id="path462"
         d="m 229.646,100.082 h -122.5 v 51.5 h 122.5 z" /></clipPath><clipPath
       id="clipPath468"
       clipPathUnits="userSpaceOnUse"><path
         id="path466"
         d="M -32768,32767 H 32767 V -32768 H -32768 Z" /></clipPath><linearGradient
       id="linearGradient476"
       spreadMethod="pad"
       gradientTransform="matrix(0,-32.66676,-32.66676,0,168.39529,145.41493)"
       gradientUnits="userSpaceOnUse"
       y2="0"
       x2="1"
       y1="0"
       x1="0"><stop
         id="stop470"
         offset="0"
         style="stop-opacity:1;stop-color:#ffffff" /><stop
         id="stop472"
         offset="0.0336957"
         style="stop-opacity:1;stop-color:#ffffff" /><stop
         id="stop474"
         offset="1"
         style="stop-opacity:0;stop-color:#ffffff" /></linearGradient><mask
       id="mask478"
       height="1"
       width="1"
       y="0"
       x="0"
       maskUnits="userSpaceOnUse"><g
         id="g488"><g
           id="g486"
           clip-path="url(#clipPath468)"><g
             id="g484"><g
               id="g482"><path
                 id="path480"
                 style="fill:url(#linearGradient476);stroke:none"
                 d="M -32768,32767 H 32767 V -32768 H -32768 Z" /></g></g></g></g></mask><linearGradient
       id="linearGradient496"
       spreadMethod="pad"
       gradientTransform="matrix(0,-32.66676,-32.66676,0,168.39529,145.41493)"
       gradientUnits="userSpaceOnUse"
       y2="0"
       x2="1"
       y1="0"
       x1="0"><stop
         id="stop490"
         offset="0"
         style="stop-opacity:1;stop-color:#b5b9c9" /><stop
         id="stop492"
         offset="0.0336957"
         style="stop-opacity:1;stop-color:#b5b9c9" /><stop
         id="stop494"
         offset="1"
         style="stop-opacity:1;stop-color:#b5b9c9" /></linearGradient><clipPath
       id="clipPath522"
       clipPathUnits="userSpaceOnUse"><path
         id="path520"
         d="m 91.146,329.056 9.292,-95.474 141.143,0.29 13.564,95.876 z" /></clipPath><clipPath
       id="clipPath530"
       clipPathUnits="userSpaceOnUse"><path
         id="path528"
         d="M -32768,32767 H 32767 V -32768 H -32768 Z" /></clipPath><linearGradient
       id="linearGradient536"
       spreadMethod="pad"
       gradientTransform="matrix(0,-87.24128,-87.24128,0,173.14529,309.68475)"
       gradientUnits="userSpaceOnUse"
       y2="0"
       x2="1"
       y1="0"
       x1="0"><stop
         id="stop532"
         offset="0"
         style="stop-opacity:0;stop-color:#ffffff" /><stop
         id="stop534"
         offset="1"
         style="stop-opacity:1;stop-color:#ffffff" /></linearGradient><mask
       id="mask538"
       height="1"
       width="1"
       y="0"
       x="0"
       maskUnits="userSpaceOnUse"><g
         id="g548"><g
           id="g546"
           clip-path="url(#clipPath530)"><g
             id="g544"><g
               id="g542"><path
                 id="path540"
                 style="fill:url(#linearGradient536);stroke:none"
                 d="M -32768,32767 H 32767 V -32768 H -32768 Z" /></g></g></g></g></mask><linearGradient
       id="linearGradient558"
       spreadMethod="pad"
       gradientTransform="matrix(0,-87.24128,-87.24128,0,173.14529,309.68475)"
       gradientUnits="userSpaceOnUse"
       y2="0"
       x2="1"
       y1="0"
       x1="0"><stop
         id="stop554"
         offset="0"
         style="stop-opacity:1;stop-color:#009cde" /><stop
         id="stop556"
         offset="1"
         style="stop-opacity:1;stop-color:#009cde" /></linearGradient><clipPath
       id="clipPath568"
       clipPathUnits="userSpaceOnUse"><path
         id="path566"
         d="M 0,500 H 500 V 0 H 0 Z" /></clipPath><clipPath
       id="clipPath584"
       clipPathUnits="userSpaceOnUse"><path
         id="path582"
         d="M 106.282,229.748 H 236.979 V 147.082 H 106.282 Z" /></clipPath><clipPath
       id="clipPath600"
       clipPathUnits="userSpaceOnUse"><path
         id="path598"
         d="M 0,500 H 500 V 0 H 0 Z" /></clipPath></defs><g
     transform="matrix(1.3333333,0,0,-1.3333333,0,666.66667)"
     id="g10"><g
       id="g38"><g
         clip-path="url(#clipPath44)"
         id="g40"><g
           id="g46"><g
             id="g48" /><g
             id="g110"><g
               id="g108"
               clip-path="url(#clipPath52)"><g
                 id="g106"><g
                   id="g104"
                   clip-path="url(#clipPath56)"><g
                     id="g102"><g
                       id="g94" /><g
                       id="g100"
                       mask="url(#mask72)"><g
                         id="g98"><path
                           id="path96"
                           style="fill:url(#radialGradient92);stroke:none"
                           d="M 335,94.333 C 335,70.77 262.47,51.667 173,51.667 83.53,51.667 11,70.77 11,94.333 11,117.897 83.53,137 173,137 c 89.47,0 162,-19.103 162,-42.667" /></g></g></g></g></g></g></g></g></g></g><g
       transform="matrix(1.3498746,0,0,1.1281864,-121.54393,-40.29542)"
       id="g112"><g
         clip-path="url(#clipPath118)"
         id="g114"><g
           transform="translate(442.3545,407.2485)"
           id="g120"><path
             id="path122"
             style="fill:#e3f5ee;fill-opacity:1;fill-rule:nonzero;stroke:none"
             d="m 0,0 h -148.632 c -7.18,0 -13,-5.82 -13,-13 v -65.466 l -30.077,-14.099 c -2.479,-2.403 -0.778,-6.602 2.674,-6.602 H 0 c 7.18,0 13,5.82 13,13 V -13 C 13,-5.82 7.18,0 0,0" /></g></g></g><g
       id="g144"><g
         clip-path="url(#clipPath150)"
         id="g146"><g
           transform="translate(171.2656,121.1172)"
           id="g152"><path
             id="path154"
             style="fill:#2e2e30;fill-opacity:1;fill-rule:nonzero;stroke:none"
             d="m 0,0 -117.38,33.723 5.872,24.763 L 0.213,40.631 Z" /></g><g
           transform="translate(209.4019,105.0459)"
           id="g156"><path
             id="path158"
             style="fill:#d9ddef;fill-opacity:1;fill-rule:nonzero;stroke:none"
             d="m 0,0 -1.839,-9.544 c -0.394,-2.047 0.736,-4.093 2.869,-5.172 5.132,-2.597 15.204,-7.304 25.558,-9.944 8.838,-2.254 18.476,0.945 22.715,7.767 1.415,2.278 2.531,4.964 2.972,8.074 0.241,1.708 0.25,3.331 0.084,4.861 C 51.366,5.213 41.048,11.736 30.107,10.234 L 29.96,10.214 C 22.608,9.196 13.122,7.325 3.632,3.887 1.704,3.188 0.333,1.725 0,0" /></g><g
           transform="translate(68.2036,176.1289)"
           id="g160"><path
             id="path162"
             style="fill:#b5b9c9;fill-opacity:1;fill-rule:nonzero;stroke:none"
             d="m 0,0 1.589,-1.228 1.76,-1.322 c 1.189,-0.883 2.401,-1.762 3.625,-2.637 2.453,-1.744 4.942,-3.468 7.469,-5.154 5.046,-3.384 10.223,-6.627 15.469,-9.755 10.492,-6.263 21.34,-11.969 32.401,-17.156 19.701,-9.237 40.869,-15.74 62.037,-21.232 3.826,-0.993 6.189,-4.664 5.375,-8.385 -1.076,-4.918 -2.449,-11.281 -3.725,-16.623 -0.959,-4.011 -5.239,-6.419 -9.359,-5.273 -9.924,2.761 -24.398,7.436 -26.502,8.182 -11.809,4.186 -23.364,9.028 -34.587,14.5 -2.254,1.1 -4.523,2.168 -6.756,3.31 -11.812,6.022 -23.29,12.563 -34.364,19.685 -5.54,3.56 -10.994,7.236 -16.343,11.089 -2.678,1.92 -5.328,3.89 -7.964,5.902 -1.317,1.01 -2.629,2.032 -3.943,3.078 -0.657,0.524 -1.314,1.05 -1.976,1.593 l -1.003,0.824 -1.096,0.92 z" /></g><g
           transform="translate(44.6455,166.2881)"
           id="g164"><path
             id="path166"
             style="fill:#000a19;fill-opacity:1;fill-rule:nonzero;stroke:none"
             d="m 0,0 c 0,7.738 6.542,14.012 14.611,14.012 8.07,0 14.612,-6.274 14.612,-14.012 0,-7.739 -6.542,-14.013 -14.612,-14.013 C 6.542,-14.013 0,-7.739 0,0" /></g><g
           transform="translate(70.6245,150.876)"
           id="g168"><path
             id="path170"
             style="fill:#000a19;fill-opacity:1;fill-rule:nonzero;stroke:none"
             d="m 0,0 -14.524,10.851 c -1.181,0.882 -1.393,2.516 -0.473,3.648 l 3.254,4.005 c 0.92,1.133 2.623,1.335 3.805,0.453 L 6.585,8.105 C 7.665,7.3 7.858,5.807 7.017,4.771 L 3.477,0.414 C 2.636,-0.621 1.079,-0.807 0,0" /></g><g
           transform="translate(214.6274,96.208)"
           id="g172"><path
             id="path174"
             style="fill:#000a19;fill-opacity:1;fill-rule:nonzero;stroke:none"
             d="m 0,0 -19.163,1.351 1.961,10.102 18.34,-3.3 C 2.228,7.957 2.966,6.976 2.815,5.921 L 2.214,1.719 C 2.064,0.676 1.095,-0.077 0,0" /></g><g
           id="g176"><g
             id="g178" /><g
             id="g190"><g
               style="opacity:0.67999297"
               id="g188"
               clip-path="url(#clipPath182)"><g
                 id="g186"
                 transform="translate(214.5806,103.582)"><path
                   id="path184"
                   style="fill:#b5b9c9;fill-opacity:1;fill-rule:nonzero;stroke:none"
                   d="m 0,0 -1.457,-7.885 c -0.313,-1.691 0.583,-3.382 2.273,-4.273 4.066,-2.146 12.046,-6.033 20.249,-8.216 7.002,-1.861 14.639,0.781 17.997,6.417 1.121,1.882 2.006,4.102 2.355,6.671 0.191,1.41 0.198,2.752 0.066,4.016 C 40.697,4.307 32.522,9.696 23.854,8.455 23.814,8.45 23.776,8.444 23.737,8.438 17.912,7.599 10.396,6.052 2.877,3.212 1.35,2.635 0.263,1.425 0,0" /></g></g></g></g><g
           id="g192"><g
             id="g194" /><g
             id="g206"><g
               style="opacity:0.10000598"
               id="g204"
               clip-path="url(#clipPath198)"><g
                 id="g202"
                 transform="translate(70.6748,166.957)"><path
                   id="path200"
                   style="fill:#ffffff;fill-opacity:1;fill-rule:nonzero;stroke:none"
                   d="m 0,0 c 0,6.006 -5.077,10.875 -11.34,10.875 -3.607,0 -6.814,-1.62 -8.891,-4.138 L -2.729,-7.064 C -1.031,-5.164 0,-2.699 0,0" /></g></g></g></g><g
           transform="translate(171.1455,120.748)"
           id="g208"><path
             id="path210"
             style="fill:#5e5e61;fill-opacity:1;fill-rule:nonzero;stroke:none"
             d="M 0,0 123.034,34.092 117.022,58.855 0.333,41 Z" /></g><g
           transform="translate(132.4917,105.0459)"
           id="g212"><path
             id="path214"
             style="fill:#d9ddef;fill-opacity:1;fill-rule:nonzero;stroke:none"
             d="m 0,0 1.882,-9.544 c 0.405,-2.047 -0.753,-4.093 -2.936,-5.172 -5.253,-2.597 -15.564,-7.304 -26.163,-9.944 -9.046,-2.254 -18.913,0.945 -23.252,7.767 -1.449,2.278 -2.591,4.964 -3.042,8.074 -0.247,1.708 -0.256,3.331 -0.086,4.861 1.016,9.171 11.578,15.694 22.778,14.192 0.05,-0.006 0.1,-0.013 0.15,-0.02 C -23.143,9.196 -13.432,7.325 -3.718,3.887 -1.744,3.188 -0.34,1.725 0,0" /></g><g
           transform="translate(277.0303,176.1289)"
           id="g216"><path
             id="path218"
             style="fill:#d9ddef;fill-opacity:1;fill-rule:nonzero;stroke:none"
             d="M 0,0 -1.628,-1.228 -3.429,-2.55 c -1.217,-0.883 -2.459,-1.762 -3.711,-2.637 -2.51,-1.744 -5.058,-3.468 -7.646,-5.154 -5.164,-3.384 -10.463,-6.627 -15.834,-9.755 -10.74,-6.263 -21.845,-11.969 -33.168,-17.156 -20.167,-9.237 -41.835,-15.74 -63.504,-21.232 -3.916,-0.993 -6.335,-4.664 -5.502,-8.385 1.102,-4.918 2.506,-11.281 3.814,-16.623 0.981,-4.011 5.362,-6.419 9.58,-5.273 10.158,2.761 24.975,7.436 27.129,8.182 12.087,4.186 23.917,9.028 35.404,14.5 2.307,1.1 4.631,2.168 6.916,3.31 12.092,6.022 23.841,12.563 35.178,19.685 5.669,3.56 11.252,7.236 16.728,11.089 2.742,1.92 5.454,3.89 8.152,5.902 1.349,1.01 2.693,2.032 4.038,3.078 0.671,0.524 1.344,1.05 2.023,1.593 l 1.025,0.824 1.122,0.92 z" /></g><g
           transform="translate(301.1455,166.2881)"
           id="g220"><path
             id="path222"
             style="fill:#000a19;fill-opacity:1;fill-rule:nonzero;stroke:none"
             d="m 0,0 c 0,7.738 -6.697,14.012 -14.958,14.012 -8.261,0 -14.957,-6.274 -14.957,-14.012 0,-7.739 6.696,-14.013 14.957,-14.013 C -6.697,-14.013 0,-7.739 0,0" /></g><g
           transform="translate(274.5518,150.876)"
           id="g224"><path
             id="path226"
             style="fill:#000a19;fill-opacity:1;fill-rule:nonzero;stroke:none"
             d="M 0,0 17.057,12.448 10.315,20.555 -6.741,8.105 C -7.846,7.3 -8.044,5.807 -7.183,4.771 L -3.559,0.414 C -2.698,-0.621 -1.104,-0.807 0,0" /></g><g
           transform="translate(127.1426,96.208)"
           id="g228"><path
             id="path230"
             style="fill:#000a19;fill-opacity:1;fill-rule:nonzero;stroke:none"
             d="M 0,0 19.616,1.351 17.608,11.453 -1.165,8.153 C -2.281,7.957 -3.036,6.976 -2.882,5.921 L -2.266,1.719 C -2.113,0.676 -1.121,-0.077 0,0" /></g><g
           id="g232"><g
             id="g234" /><g
             id="g246"><g
               id="g244"
               clip-path="url(#clipPath238)"><g
                 id="g242"
                 transform="translate(125.8843,104.082)"><path
                   id="path240"
                   style="fill:#b5b9c9;fill-opacity:1;fill-rule:nonzero;stroke:none"
                   d="m 0,0 1.457,-7.885 c 0.313,-1.691 -0.583,-3.382 -2.272,-4.273 -4.066,-2.146 -12.047,-6.033 -20.25,-8.216 -7.002,-1.861 -14.639,0.781 -17.997,6.417 -1.121,1.882 -2.005,4.102 -2.355,6.671 -0.191,1.41 -0.197,2.752 -0.066,4.016 0.786,7.577 8.961,12.966 17.63,11.725 0.039,-0.005 0.077,-0.011 0.116,-0.017 5.825,-0.839 13.341,-2.386 20.86,-5.226 C -1.35,2.635 -0.263,1.425 0,0" /></g></g></g></g><g
           id="g248"><g
             id="g250" /><g
             id="g262"><g
               style="opacity:0.10000598"
               id="g260"
               clip-path="url(#clipPath254)"><g
                 id="g258"
                 transform="translate(284.9863,155.1074)"><path
                   id="path256"
                   style="fill:#ffffff;fill-opacity:1;fill-rule:nonzero;stroke:none"
                   d="m 0,0 c 6.336,-0.917 12.266,3.151 13.244,9.088 0.565,3.418 -0.644,6.704 -2.974,9.058 L -7.026,3.665 C -5.286,1.766 -2.848,0.412 0,0" /></g></g></g></g><g
           transform="translate(173.6812,292.6992)"
           id="g264"><path
             id="path266"
             style="fill:#d9ddef;fill-opacity:1;fill-rule:nonzero;stroke:none"
             d="m 0,0 c -27.635,-0.014 -49.889,-22.757 -49.889,-50.393 v -34.294 -28.623 c 0,-10.589 8.585,-19.174 19.175,-19.174 h 11.16 35.299 15.021 c 10.589,0 19.174,8.585 19.174,19.174 v 30.18 33.216 C 49.94,-22.339 27.579,0.014 0,0" /></g><g
           transform="translate(171.7764,243.0605)"
           id="g268"><path
             id="path270"
             style="fill:#98989e;fill-opacity:1;fill-rule:nonzero;stroke:none"
             d="m 0,0 c -9.748,0 -17.649,-7.901 -17.649,-17.649 v -65.197 h 35.298 v 65.197 C 17.649,-7.901 9.748,0 0,0" /></g><g
           transform="translate(219.645,196.7266)"
           id="g272"><path
             id="path274"
             style="fill:#d9ddef;fill-opacity:1;fill-rule:nonzero;stroke:none"
             d="m 0,0 13.192,1.234 -5.63,58.038 c -0.538,5.775 3.333,11.214 9.146,12.421 6.244,1.297 12.358,-2.714 13.655,-8.958 l 15.202,-73.191 c 0.2,-0.995 0.319,-2.104 0.31,-3.159 C 45.8,-21.828 39.083,-28.425 30.87,-28.35 h -0.043 l -29.645,0.271 c -7.102,0.09 -13.204,5.528 -13.881,12.76 C -13.423,-7.582 -7.737,-0.724 0,0" /></g><g
           transform="translate(228.9185,242.5762)"
           id="g276"><path
             id="path278"
             style="fill:#98989e;fill-opacity:1;fill-rule:nonzero;stroke:none"
             d="M 0,0 -0.623,3.321 23.25,7.058 23.873,3.841 Z" /></g><g
           transform="translate(231.3057,212.8916)"
           id="g280"><path
             id="path282"
             style="fill:#98989e;fill-opacity:1;fill-rule:nonzero;stroke:none"
             d="m 0,0 -0.233,3.191 27.089,4.282 0.623,-3.27 z" /></g><g
           transform="translate(264.9355,178.8467)"
           id="g284"><path
             id="path286"
             style="fill:#98989e;fill-opacity:1;fill-rule:nonzero;stroke:none"
             d="m 0,0 -32.098,19.114 c 0,0 26.026,-25.808 26.856,-26.535 C -0.986,-3.944 0,0 0,0" /></g><g
           transform="translate(223.417,230.373)"
           id="g288"><path
             id="path290"
             style="fill:#000a19;fill-opacity:1;fill-rule:nonzero;stroke:none"
             d="m 0,0 c 0.241,-0.922 4.054,2.646 4.39,3.049 1.514,1.813 2.772,3.839 3.743,5.991 1.942,4.306 2.746,9.138 2.181,13.834 C 8.907,34.565 -0.143,43.504 -11.72,44.951 -11.72,44.951 -0.119,0.455 0,0" /></g><g
           transform="translate(127.1748,197.1426)"
           id="g292"><path
             id="path294"
             style="fill:#d9ddef;fill-opacity:1;fill-rule:nonzero;stroke:none"
             d="m 0,0 -13.192,1.233 5.629,58.038 c 0.539,5.775 -3.332,11.214 -9.145,12.421 -6.245,1.297 -12.358,-2.713 -13.655,-8.958 l -15.202,-73.191 c -0.2,-0.995 -0.32,-2.104 -0.31,-3.159 0.075,-8.212 6.792,-14.809 15.005,-14.735 l 0.042,10e-4 29.645,0.27 c 7.103,0.09 13.205,5.528 13.882,12.76 C 13.422,-7.583 7.737,-0.725 0,0" /></g><g
           transform="translate(118.2739,242.8877)"
           id="g296"><path
             id="path298"
             style="fill:#98989e;fill-opacity:1;fill-rule:nonzero;stroke:none"
             d="M 0,0 0.416,3.373 -23.623,7.162 -24.246,3.944 Z" /></g><g
           transform="translate(115.5137,213.3066)"
           id="g300"><path
             id="path302"
             style="fill:#98989e;fill-opacity:1;fill-rule:nonzero;stroke:none"
             d="m 0,0 0.234,3.191 -27.09,4.282 -0.623,-3.27 z" /></g><g
           transform="translate(81.998,179.1582)"
           id="g304"><path
             id="path306"
             style="fill:#98989e;fill-opacity:1;fill-rule:nonzero;stroke:none"
             d="M 0,0 31.984,19.218 5.138,-7.369 C 4.263,-6.756 2.959,-5.683 1.816,-3.996 0.773,-2.456 0.262,-0.993 0,0" /></g><g
           transform="translate(124.0308,230.2695)"
           id="g308"><path
             id="path310"
             style="fill:#000a19;fill-opacity:1;fill-rule:nonzero;stroke:none"
             d="m 0,0 c -0.241,-0.922 -4.053,2.646 -4.39,3.049 -1.514,1.813 -2.771,3.838 -3.743,5.991 -1.942,4.306 -2.746,9.138 -2.18,13.834 1.406,11.691 10.457,20.63 22.034,22.077 C 11.721,44.951 0.119,0.455 0,0" /></g><g
           transform="translate(192.4595,280.0137)"
           id="g312"><path
             id="path314"
             style="fill:#000a19;fill-opacity:1;fill-rule:nonzero;stroke:none"
             d="m 0,0 c 0,-5.026 -9.26,-9.1 -20.683,-9.1 -11.423,0 -20.683,4.074 -20.683,9.1 0,5.026 9.26,9.101 20.683,9.101 C -9.26,9.101 0,5.026 0,0" /></g><g
           transform="translate(161.1133,311.8193)"
           id="g316"><path
             id="path318"
             style="fill:#646468;fill-opacity:1;fill-rule:nonzero;stroke:none"
             d="m 0,0 v -28.789 -4.012 c 0,-1.378 0.837,-2.609 2.115,-3.124 2.253,-0.908 5.252,-1.462 8.548,-1.462 3.297,0 6.295,0.554 8.548,1.462 1.278,0.515 2.115,1.746 2.115,3.124 V -28.789 0 Z" /></g><g
           transform="translate(119.564,336.6934)"
           id="g320"><path
             id="path322"
             style="fill:#d9ddef;fill-opacity:1;fill-rule:nonzero;stroke:none"
             d="m 0,0 c 0,28.836 23.376,52.212 52.212,52.212 28.837,0 52.213,-23.376 52.213,-52.212 0,-28.836 -23.376,-52.213 -52.213,-52.213 C 23.376,-52.213 0,-28.836 0,0" /></g><g
           transform="translate(142.3862,318.3086)"
           id="g324"><path
             id="path326"
             style="fill:#000a19;fill-opacity:1;fill-rule:nonzero;stroke:none"
             d="m 0,0 c -1.456,0 -2.331,-1.642 -1.506,-2.841 6.76,-9.827 18.068,-16.279 30.896,-16.279 12.829,0 24.137,6.452 30.896,16.279 C 61.111,-1.642 60.236,0 58.78,0 Z" /></g><g
           transform="translate(204.9648,330.1665)"
           id="g328"><path
             id="path330"
             style="fill:#000a19;fill-opacity:1;fill-rule:nonzero;stroke:none"
             d="m 0,0 h -66.652 c -1.623,0 -2.938,1.315 -2.938,2.938 v 18.668 c 0,1.623 1.315,2.937 2.938,2.937 H 0 c 1.623,0 2.938,-1.314 2.938,-2.937 V 2.938 C 2.938,1.315 1.623,0 0,0" /></g><g
           transform="translate(156.3335,347.6782)"
           id="g332"><path
             id="path334"
             style="fill:#009cde;fill-opacity:1;fill-rule:nonzero;stroke:none"
             d="m 0,0 h -6.067 v -2.114 h -1.609 v -6.987 h 1.609 v -2.114 H 0 v 2.114 h 1.608 v 6.987 l -1.608,0 z" /></g><g
           transform="translate(195.4468,345.564)"
           id="g336"><path
             id="path338"
             style="fill:#009cde;fill-opacity:1;fill-rule:nonzero;stroke:none"
             d="M 0,0 H -1.609 V 2.114 H -7.676 V 0 h -1.608 v -6.986 h 1.608 v -2.115 h 6.067 v 2.115 H 0 Z" /></g><g
           id="g340"><g
             id="g342" /><g
             id="g354"><g
               style="opacity:0.19999701"
               id="g352"
               clip-path="url(#clipPath346)"><g
                 id="g350"
                 transform="translate(202.8452,352.0815)"><path
                   id="path348"
                   style="fill:#ffffff;fill-opacity:1;fill-rule:nonzero;stroke:none"
                   d="M 0,0 H -1.33 L -20.616,-19.286 H 0 c 1.275,0 2.309,1.033 2.309,2.308 v 14.67 C 2.309,-1.033 1.275,0 0,0" /></g></g></g></g><g
           transform="translate(166.8584,366.0166)"
           id="g356"><path
             id="path358"
             style="fill:#98989e;fill-opacity:1;fill-rule:nonzero;stroke:none"
             d="m 0,0 h 9.836 c 5.204,0 9.422,4.219 9.422,9.422 v 11.456 c -4.558,1.301 -9.364,2.011 -14.34,2.011 -4.975,0 -9.782,-0.71 -14.34,-2.011 V 9.422 C -9.422,4.219 -5.204,0 0,0" /></g><g
           id="g360"><g
             id="g362" /><g
             id="g374"><g
               style="opacity:0.19999701"
               id="g372"
               clip-path="url(#clipPath366)"><g
                 id="g370"
                 transform="translate(173.562,388.873)"><path
                   id="path368"
                   style="fill:#ffffff;fill-opacity:1;fill-rule:nonzero;stroke:none"
                   d="m 0,0 v -22.856 h 3.132 c 5.204,0 9.423,4.218 9.423,9.422 V -1.978 C 8.544,-0.834 4.341,-0.149 0,0" /></g></g></g></g><g
           transform="translate(223.9888,355.0781)"
           id="g376"><path
             id="path378"
             style="fill:#98989e;fill-opacity:1;fill-rule:nonzero;stroke:none"
             d="m 0,0 c -2.741,0 -4.964,-2.223 -4.964,-4.964 v -22.062 c 0,-2.741 2.223,-4.964 4.964,-4.964 2.742,0 4.964,2.223 4.964,4.964 V -4.964 C 4.964,-2.223 2.742,0 0,0" /></g><path
           id="path380"
           style="fill:#98989e;fill-opacity:1;fill-rule:nonzero;stroke:none"
           d="m 224.541,341.328 h 19.488 v -3.493 h -19.488 z" /><g
           transform="translate(239.2485,339.5815)"
           id="g382"><path
             id="path384"
             style="fill:#009cde;fill-opacity:1;fill-rule:nonzero;stroke:none"
             d="M 0,0 C 0,2.335 1.893,4.229 4.228,4.229 6.563,4.229 8.457,2.335 8.457,0 8.457,-2.335 6.563,-4.229 4.228,-4.229 1.893,-4.229 0,-2.335 0,0" /></g><g
           id="g386"><g
             id="g388" /><g
             id="g400"><g
               style="opacity:0.19999701"
               id="g398"
               clip-path="url(#clipPath392)"><g
                 id="g396"
                 transform="translate(224.0205,355.0747)"><path
                   id="path394"
                   style="fill:#ffffff;fill-opacity:1;fill-rule:nonzero;stroke:none"
                   d="m 0,0 v -31.983 c 2.727,0.017 4.933,2.23 4.933,4.961 V -4.96 C 4.933,-2.23 2.727,-0.017 0,0" /></g></g></g></g><g
           transform="translate(119.564,355.0781)"
           id="g402"><path
             id="path404"
             style="fill:#98989e;fill-opacity:1;fill-rule:nonzero;stroke:none"
             d="m 0,0 c -2.742,0 -4.964,-2.223 -4.964,-4.964 v -22.062 c 0,-2.741 2.222,-4.964 4.964,-4.964 2.741,0 4.964,2.223 4.964,4.964 V -4.964 C 4.964,-2.223 2.741,0 0,0" /></g><path
           id="path406"
           style="fill:#98989e;fill-opacity:1;fill-rule:nonzero;stroke:none"
           d="M 118.829,337.835 H 99.341 v 3.493 h 19.488 z" /><g
           transform="translate(104.1206,339.5815)"
           id="g408"><path
             id="path410"
             style="fill:#009cde;fill-opacity:1;fill-rule:nonzero;stroke:none"
             d="m 0,0 c 0,-2.335 -1.893,-4.229 -4.229,-4.229 -2.334,0 -4.228,1.894 -4.228,4.229 0,2.335 1.894,4.229 4.228,4.229 C -1.893,4.229 0,2.335 0,0" /></g><g
           id="g412"><g
             id="g414" /><g
             id="g426"><g
               style="opacity:0.19999701"
               id="g424"
               clip-path="url(#clipPath418)"><g
                 id="g422"
                 transform="translate(114.6001,350.1143)"><path
                   id="path420"
                   style="fill:#ffffff;fill-opacity:1;fill-rule:nonzero;stroke:none"
                   d="m 0,0 v -22.062 c 0,-2.684 2.134,-4.856 4.795,-4.947 V 4.947 C 2.134,4.856 0,2.684 0,0" /></g></g></g></g><g
           id="g428"><g
             id="g430" /><g
             id="g442"><g
               style="opacity:0.19999701"
               id="g440"
               clip-path="url(#clipPath434)"><g
                 id="g438"
                 transform="translate(158.6455,407.1987)"><path
                   id="path436"
                   style="fill:#ffffff;fill-opacity:1;fill-rule:nonzero;stroke:none"
                   d="m 0,0 c 0,7.252 5.879,13.131 13.131,13.131 7.252,0 13.131,-5.879 13.131,-13.131 0,-7.252 -5.879,-13.131 -13.131,-13.131 C 5.879,-13.131 0,-7.252 0,0" /></g></g></g></g><path
           id="path444"
           style="fill:#98989e;fill-opacity:1;fill-rule:nonzero;stroke:none"
           d="m 170.03,407.75 h 3.493 v -19.488 h -3.493 z" /><g
           transform="translate(171.7764,401.3154)"
           id="g446"><path
             id="path448"
             style="fill:#009cde;fill-opacity:1;fill-rule:nonzero;stroke:none"
             d="m 0,0 c -3.249,0 -5.883,2.634 -5.883,5.883 0,3.249 2.634,5.883 5.883,5.883 3.249,0 5.883,-2.634 5.883,-5.883 C 5.883,2.634 3.249,0 0,0" /></g><g
           transform="translate(175.8955,408.5815)"
           id="g450"><path
             id="path452"
             style="fill:#00c4ff;fill-opacity:1;fill-rule:nonzero;stroke:none"
             d="m 0,0 c 0,-1.312 -1.063,-2.375 -2.375,-2.375 -1.312,0 -2.375,1.063 -2.375,2.375 0,1.312 1.063,2.375 2.375,2.375 C -1.063,2.375 0,1.312 0,0" /></g><g
           id="g454"><g
             id="g456" /><g
             id="g514"><g
               id="g512"
               clip-path="url(#clipPath460)"><g
                 id="g510"><g
                   id="g508"
                   clip-path="url(#clipPath464)"><g
                     id="g506"><g
                       id="g498" /><g
                       id="g504"
                       mask="url(#mask478)"><g
                         id="g502"><path
                           id="path500"
                           style="fill:url(#linearGradient496);stroke:none"
                           d="m 229.646,100.082 h -122.5 v 51.5 h 122.5 z" /></g></g></g></g></g></g></g></g></g></g><g
       id="g516"><g
         clip-path="url(#clipPath522)"
         id="g518"><g
           id="g524"><g
             id="g526" /><g
             mask="url(#mask538)"
             id="g550"><g
               id="g552"><path
                 id="path560"
                 style="fill:url(#linearGradient558);stroke:none"
                 d="m 91.146,329.056 9.292,-95.474 141.143,0.29 13.564,95.876 z" /></g></g></g></g></g><g
       id="g562"><g
         clip-path="url(#clipPath568)"
         id="g564"><g
           transform="translate(228.4927,143.8682)"
           id="g570"><path
             id="path572"
             style="fill:#000a19;fill-opacity:1;fill-rule:nonzero;stroke:none"
             d="m 0,0 h -117.615 c -2.422,0 -4.459,1.813 -4.739,4.219 l -9.276,79.664 c -0.436,3.75 2.494,7.041 6.268,7.041 H 7.746 c 3.775,0 6.705,-3.291 6.269,-7.041 L 4.738,4.219 C 4.458,1.813 2.421,0 0,0" /></g><g
           transform="translate(177.9365,188.0322)"
           id="g574"><path
             id="path576"
             style="fill:#002e58;fill-opacity:1;fill-rule:nonzero;stroke:none"
             d="m 0,0 c 0,-3.354 -3.694,-6.071 -8.251,-6.071 -4.558,0 -8.252,2.717 -8.252,6.071 0,3.354 3.694,6.072 8.252,6.072 C -3.694,6.072 0,3.354 0,0" /></g><g
           id="g578"><g
             id="g580" /><g
             id="g592"><g
               style="opacity:0.05000311"
               id="g590"
               clip-path="url(#clipPath584)"><g
                 id="g588"
                 transform="translate(231.2637,229.748)"><path
                   id="path586"
                   style="fill:#ffffff;fill-opacity:1;fill-rule:nonzero;stroke:none"
                   d="m 0,0 h -120.534 c -1.813,0 -3.406,-0.855 -4.448,-2.169 l 51.098,-34.153 c 2.503,3.084 7.07,5.156 12.305,5.156 7.918,0 14.336,-4.724 14.336,-10.55 0,-3.49 -2.313,-6.575 -5.862,-8.495 l 48.557,-32.455 c 0.981,0.695 1.676,1.784 1.824,3.069 l 8.4,73.134 C 6.071,-3.021 3.417,0 0,0" /></g></g></g></g></g></g><text
       y="-318.26672"
       x="331.1347"
       id="text126"
       style="font-variant:normal;font-weight:bold;font-stretch:normal;font-size:38.024086px;font-family:'Riffic Medium';-inkscape-font-specification:Riffic-Bold;writing-mode:lr-tb;fill:#000a19;fill-opacity:1;fill-rule:nonzero;stroke:none;stroke-width:1.02773643"
       transform="scale(0.83750999,-1.1940156)"><tspan
         y="-318.26672"
         x="331.1347"
         style="stroke-width:1.02773643"
         id="tspan124">   Choose</tspan><tspan
         id="tspan747"
         y="-270.7366"
         x="331.1347"
         style="stroke-width:1.02773643">a Difficulty</tspan></text>
</g></svg>